<?xml version="1.0" encoding="UTF-8" standalone="no"?>
<svg
   version="1.1"
   width="169px"
   height="76px"
   viewBox="-0.5 -0.5 169 76"
   style="background-color: rgb(255, 255, 255);"
   id="svg2521"
   sodipodi:docname="4-3-ventil.svg"
   inkscape:version="1.2.1 (9c6d41e410, 2022-07-14)"
   xmlns:inkscape="http://www.inkscape.org/namespaces/inkscape"
   xmlns:sodipodi="http://sodipodi.sourceforge.net/DTD/sodipodi-0.dtd"
   xmlns="http://www.w3.org/2000/svg"
   xmlns:svg="http://www.w3.org/2000/svg">
  <sodipodi:namedview
     id="namedview2523"
     pagecolor="#ffffff"
     bordercolor="#000000"
     borderopacity="0.25"
     inkscape:showpageshadow="2"
     inkscape:pageopacity="0.0"
     inkscape:pagecheckerboard="0"
     inkscape:deskcolor="#d1d1d1"
     showgrid="false"
     inkscape:zoom="5.2899408"
     inkscape:cx="84.5"
     inkscape:cy="37.996644"
     inkscape:window-width="1366"
     inkscape:window-height="705"
     inkscape:window-x="944"
     inkscape:window-y="1432"
     inkscape:window-maximized="1"
     inkscape:current-layer="svg2521" />
  <defs
     id="defs2513" />
  <path
     d="m 123.16997,26.477315 5.04385,2.920179 1.59575,-9.108456 z m 0.13809,22.214408 4.49673,-2.542103 1.95382,8.73038 z M 52.534765,46.62519 58.865727,46.436152 55.983803,54.98 Z m -18.013378,-17.116152 5.932886,0.189038 -2.672886,-9.489038 z"
     fill="#000000"
     stroke="#000000"
     stroke-miterlimit="10"
     pointer-events="all"
     id="path2515"
     sodipodi:nodetypes="cccccccccccccccc" />
  <path
     d="m 162.46,27.7 -1.9,9.46 -3.88,-18.2 -3.86,18.2 -3.88,-18.2 -3.86,18.2 -3.88,-18.2 -2.06,9.24 M 129.11481,53.273468 109.87271,19.277137 M 74.18,0 V 28.02 M 128.92577,22.680761 110.5979,55.702864 M 92.86,28.2 V 0 m 0,74.48 L 93.081544,47.049038 83.55,46.8 74.177494,46.85 74.18,74.48 m 27.8,-55.46 V 56.06 M 139.26,19 27.88,19.1 v 36.96 h 111.38 z m 0,37.02 h 27.9 V 37.5 h -27.9 m 9.36,0 9.28,18.52 M 4.7,27.58 l 1.9,9.46 3.88,-18.2 3.86,18.2 3.86,-18.2 3.88,18.2 3.86,-18.2 2.08,9.24 m 37,-9.06 V 56.06 M 37.463311,29.758076 37.652349,55.521924 M 55.685727,19.369038 55.496689,46.843266 M 97.84,28.22 h -10 m -8.58,0 h -10 M 27.88,56.06 H 0 V 37.52 h 27.88 m -9.36,0 -9.26,18.54"
     fill="none"
     stroke="#000000"
     stroke-miterlimit="10"
     pointer-events="all"
     id="path2517"
     sodipodi:nodetypes="cccccccccccccccccccccccccccccccccccccccccccccccccccccccccc" />
</svg>
